<svg xmlns="http://www.w3.org/2000/svg" width="163.839" height="163.839" fill-rule="evenodd" clip-rule="evenodd" image-rendering="optimizeQuality" shape-rendering="geometricPrecision" text-rendering="geometricPrecision" viewBox="0 0 4335 4335"><defs><linearGradient id="a" x1="2149.16" x2="2149.16" y1="177.36" y2="4241.78" gradientUnits="userSpaceOnUse"><stop offset="0" stop-color="#36AEE1"/><stop offset="1" stop-color="#1E96C8"/></linearGradient></defs><path fill="url(#a)" d="M2149 177c1122 0 2032 910 2032 2032s-910 2032-2032 2032S117 3331 117 2209 1027 177 2149 177z"/><path fill="#fff" d="m3194 1496-319 1503-215 39-443-325-230 228-338-580 368-543 953-335z"/><path fill="#f2f8fb" d="M2002 2550c4 12 95 72 102 75l-2-9 580-361c12-8 19-11 30-19 76-50 169-103 244-153l91-57c6-4 8-6 16-10 14-8 5-6 21-9l11-51c5-27 21-81 19-105-4-9 1-8-30 12-12 8-23 14-35 22l-212 132c-132 87-287 177-421 263l-212 132c-24 15-46 29-70 44l-105 65c-42 25-33 16-30 28z"/><path fill="#f5fafd" d="M2104 2625c4 10 37 30 48 39 19 13 36 25 52 38 3-12 1-7 8-14l226-141c9-6 17-10 26-16 10-6 16-9 26-16l562-349 10-39 14-66 10-53c-17 3-8 1-21 9-8 5-10 6-16 10l-91 57c-75 50-168 103-244 153-12 8-18 11-30 19l-580 361 2 9z"/><path fill="#fefeff" d="M2493 2913c3 7 14 13 22 19 16 11 74 52 84 65 12 2 81 56 90 63 48 35 61 29 121 31 18-17 19-5 42-39 13-20 13-33 23-53l36-171 26-121c4-25 13-48 12-72l-2-12-233 144c-19 13-38 23-58 36l-142 89c-9 5-19 7-21 21z"/><path fill="#f0f7fc" d="M1940 2504c5 10 49 40 62 46-3-11-12-3 30-28l105-65c24-15 45-28 70-44l212-132c134-86 289-177 421-263l212-132c12-8 23-14 35-22 31-20 26-20 30-12 11-12 11-43 16-61 2-14 6-21 3-34-8-11 4-9-11-9-6 9-62 42-74 49l-372 233c-126 82-267 164-393 246l-316 198c-7 4-24 11-27 18-5 9-14-9-1 12z"/><path fill="#fbfdfe" d="M2371 2822c0 1 1 1 1 2 1 6 67 49 77 60 4-20 6-13 45-38 6-4 12-7 17-10s11-7 16-10l33-20c90-54 187-120 277-173l98-61c30-19 22-22 29-8 9-11 9-33 14-48l14-64v-17c-10-12 0-7-12-4l-223 140c-9 6-14 8-21 13-105 65-224 143-328 205-13 8-24 16-39 23 4 6 0 2 1 11z"/><path fill="#2199cc" d="m2131 2801 174 74c33 14 271 123 295 122-10-13-68-54-84-65-8-6-20-12-22-19-19-9-27-18-44-29-11-11-76-54-77-60 0-1-1-1-1-2-17-7-28-18-42-28-11-8-25-18-37-27-17-13-58-46-75-53-14 14-25 24-42 43-14 16-33 26-44 45z"/><path fill="#f7fbfd" d="m2204 2702 12 11c17 8 58 41 75 53 12 9 26 20 37 27 14 11 25 21 42 28-1-9 2-5-1-11 15-7 26-15 39-23 104-62 223-140 328-205 8-5 12-7 21-13l223-140c12-3 1-8 12 4l12-40c3-12 5-27 9-37l18-87 21-104-562 349c-10 7-16 9-26 16-9 6-17 10-26 16l-226 141c-7 7-5 2-8 14z"/><path fill="#edf5fb" d="m3045 1344-157 61-127 49-216 85-97 36-272 105-72 27-197 76-125 48-149 58-138 54-87 34-95 36-92 36c-7 5-58 26-67 29-5 6-120 71-14 124 27 13 469 153 508 160 22-9 53-30 74-44l366-231c187-118 404-250 584-369 43-29 122-88 158-62 2 24-26 40-46 57l-172 157c-10 9-20 15-29 24l-57 53c-13 11-17 15-30 27l-575 520 6 9 11 2c-13-21-4-3 1-12 4-7 20-14 27-18l316-198c126-82 267-164 393-246l372-233c13-8 69-40 74-49 14 0 2-2 11 9 3-4 1-1 5-9l21-98 26-122c7-39 20-76 12-117-7-36-23-62-52-75-41-17-66-1-102 8z"/><path fill="#c8daea" d="m1649 2361 39 128 41 136 37 121 36 117c5 8 18 56 22 68 9 30 12 52 43 51l22-2 41-479c-2-3-3-7-6-9l575-520c13-13 17-16 30-27l57-53c9-9 19-15 29-24l172-157c20-17 48-34 46-57-37-26-115 33-158 62-180 119-397 251-584 369l-366 231c-21 14-52 35-74 44z"/><path fill="#a9c9dd" d="M1867 2983v3c28 2 50 1 73-11 32-16 30-29 48-34 3-5 61-67 70-69 8-16 40-41 54-55l20-16c10-19 29-29 44-45 17-19 28-29 42-43l-12-11c-17-14-34-25-52-38-12-8-44-29-48-39-7-3-98-64-102-75-12-6-57-36-62-46l-11-2-41 479-22 2z"/><path fill="#fcfdfe" d="M2449 2883c17 12 25 21 44 29 2-14 12-16 21-21l142-89c20-13 39-24 58-36l233-144 2 12c7-8 5-14 9-25l6-47c-7-14 1-12-29 8l-98 61c-90 53-187 119-277 173l-33 20c-5 3-11 7-16 10s-11 6-17 10c-39 25-42 18-45 38z"/></svg>